<mxfile host="app.diagrams.net" modified="2023-09-06T07:43:58.116Z" agent="Mozilla/5.0 (Windows NT 10.0; Win64; x64) AppleWebKit/537.36 (KHTML, like Gecko) Chrome/116.0.0.0 Safari/537.36" etag="EmT1gVZ1mEDaPpEbpulx" version="21.7.2" type="github">
  <diagram id="prtHgNgQTEPvFCAcTncT" name="Page-1">
    <mxGraphModel dx="1434" dy="800" grid="1" gridSize="10" guides="1" tooltips="1" connect="1" arrows="1" fold="1" page="1" pageScale="1" pageWidth="827" pageHeight="1169" math="0" shadow="0">
      <root>
        <mxCell id="0" />
        <mxCell id="1" parent="0" />
        <mxCell id="dNxyNK7c78bLwvsdeMH5-19" value="JWT Refresh Tokens" style="swimlane;html=1;childLayout=stackLayout;resizeParent=1;resizeParentMax=0;horizontal=0;startSize=20;horizontalStack=0;rounded=0;labelBackgroundColor=none;fillColor=#A8DADC;strokeColor=#457B9D;fontColor=#1D3557;" parent="1" vertex="1">
          <mxGeometry x="120" y="120" width="1220" height="650" as="geometry" />
        </mxCell>
        <mxCell id="dNxyNK7c78bLwvsdeMH5-27" value="" style="edgeStyle=orthogonalEdgeStyle;rounded=0;orthogonalLoop=1;jettySize=auto;html=1;dashed=1;endArrow=none;endFill=0;labelBackgroundColor=none;strokeColor=#457B9D;fontColor=default;" parent="dNxyNK7c78bLwvsdeMH5-19" source="dNxyNK7c78bLwvsdeMH5-24" edge="1">
          <mxGeometry relative="1" as="geometry">
            <mxPoint x="300" y="160" as="targetPoint" />
          </mxGeometry>
        </mxCell>
        <mxCell id="dNxyNK7c78bLwvsdeMH5-20" value="FrontEnd" style="swimlane;html=1;startSize=20;horizontal=0;rounded=0;labelBackgroundColor=none;fillColor=#A8DADC;strokeColor=#457B9D;fontColor=#1D3557;" parent="dNxyNK7c78bLwvsdeMH5-19" vertex="1">
          <mxGeometry x="20" width="1200" height="190" as="geometry" />
        </mxCell>
        <mxCell id="dNxyNK7c78bLwvsdeMH5-25" value="" style="edgeStyle=orthogonalEdgeStyle;rounded=0;orthogonalLoop=1;jettySize=auto;html=1;labelBackgroundColor=none;strokeColor=#457B9D;fontColor=default;" parent="dNxyNK7c78bLwvsdeMH5-20" source="dNxyNK7c78bLwvsdeMH5-23" target="dNxyNK7c78bLwvsdeMH5-24" edge="1">
          <mxGeometry relative="1" as="geometry" />
        </mxCell>
        <mxCell id="dNxyNK7c78bLwvsdeMH5-23" value="" style="ellipse;whiteSpace=wrap;html=1;rounded=0;labelBackgroundColor=none;fillColor=#A8DADC;strokeColor=#457B9D;fontColor=#1D3557;" parent="dNxyNK7c78bLwvsdeMH5-20" vertex="1">
          <mxGeometry x="40" y="40" width="40" height="40" as="geometry" />
        </mxCell>
        <mxCell id="UKaXdKn6bv_ach8d9USr-5" value="" style="edgeStyle=orthogonalEdgeStyle;rounded=0;orthogonalLoop=1;jettySize=auto;html=1;strokeColor=#457B9D;fontColor=#1D3557;fillColor=#A8DADC;" edge="1" parent="dNxyNK7c78bLwvsdeMH5-20" source="dNxyNK7c78bLwvsdeMH5-24" target="dNxyNK7c78bLwvsdeMH5-30">
          <mxGeometry relative="1" as="geometry" />
        </mxCell>
        <mxCell id="dNxyNK7c78bLwvsdeMH5-24" value="Prepare Request" style="rounded=0;whiteSpace=wrap;html=1;fontFamily=Helvetica;fontSize=12;fontColor=#1D3557;align=center;labelBackgroundColor=none;fillColor=#A8DADC;strokeColor=#457B9D;" parent="dNxyNK7c78bLwvsdeMH5-20" vertex="1">
          <mxGeometry x="120" y="30" width="80" height="60" as="geometry" />
        </mxCell>
        <mxCell id="dNxyNK7c78bLwvsdeMH5-30" value="Security Header &lt;br&gt;(JWT Token)" style="rounded=0;whiteSpace=wrap;html=1;fontFamily=Helvetica;fontSize=12;fontColor=#1D3557;align=center;labelBackgroundColor=none;fillColor=#A8DADC;strokeColor=#457B9D;" parent="dNxyNK7c78bLwvsdeMH5-20" vertex="1">
          <mxGeometry x="240" y="30" width="80" height="60" as="geometry" />
        </mxCell>
        <mxCell id="UKaXdKn6bv_ach8d9USr-29" value="" style="edgeStyle=orthogonalEdgeStyle;rounded=0;orthogonalLoop=1;jettySize=auto;html=1;strokeColor=#457B9D;fontColor=#1D3557;fillColor=#A8DADC;" edge="1" parent="dNxyNK7c78bLwvsdeMH5-20" source="UKaXdKn6bv_ach8d9USr-26" target="UKaXdKn6bv_ach8d9USr-28">
          <mxGeometry relative="1" as="geometry" />
        </mxCell>
        <mxCell id="UKaXdKn6bv_ach8d9USr-26" value="Invalid Token" style="rounded=0;whiteSpace=wrap;html=1;fontFamily=Helvetica;fontSize=12;fontColor=#1D3557;align=center;labelBackgroundColor=none;fillColor=#A8DADC;strokeColor=#457B9D;" vertex="1" parent="dNxyNK7c78bLwvsdeMH5-20">
          <mxGeometry x="430" y="30" width="80" height="60" as="geometry" />
        </mxCell>
        <mxCell id="UKaXdKn6bv_ach8d9USr-28" value="" style="ellipse;whiteSpace=wrap;html=1;rounded=0;labelBackgroundColor=none;fillColor=#d80073;strokeColor=#A50040;fontColor=#ffffff;" vertex="1" parent="dNxyNK7c78bLwvsdeMH5-20">
          <mxGeometry x="580" y="40" width="40" height="40" as="geometry" />
        </mxCell>
        <mxCell id="UKaXdKn6bv_ach8d9USr-32" value="" style="edgeStyle=orthogonalEdgeStyle;rounded=0;orthogonalLoop=1;jettySize=auto;html=1;strokeColor=#457B9D;fontColor=#1D3557;fillColor=#A8DADC;" edge="1" source="UKaXdKn6bv_ach8d9USr-33" target="UKaXdKn6bv_ach8d9USr-34" parent="dNxyNK7c78bLwvsdeMH5-20">
          <mxGeometry relative="1" as="geometry" />
        </mxCell>
        <mxCell id="UKaXdKn6bv_ach8d9USr-33" value="Invalid Token" style="rounded=0;whiteSpace=wrap;html=1;fontFamily=Helvetica;fontSize=12;fontColor=#1D3557;align=center;labelBackgroundColor=none;fillColor=#A8DADC;strokeColor=#457B9D;" vertex="1" parent="dNxyNK7c78bLwvsdeMH5-20">
          <mxGeometry x="687" y="50" width="80" height="60" as="geometry" />
        </mxCell>
        <mxCell id="UKaXdKn6bv_ach8d9USr-34" value="" style="ellipse;whiteSpace=wrap;html=1;rounded=0;labelBackgroundColor=none;fillColor=#d80073;strokeColor=#A50040;fontColor=#ffffff;" vertex="1" parent="dNxyNK7c78bLwvsdeMH5-20">
          <mxGeometry x="837" y="60" width="40" height="40" as="geometry" />
        </mxCell>
        <mxCell id="dNxyNK7c78bLwvsdeMH5-21" value="API" style="swimlane;html=1;startSize=20;horizontal=0;rounded=0;labelBackgroundColor=none;fillColor=#A8DADC;strokeColor=#457B9D;fontColor=#1D3557;" parent="dNxyNK7c78bLwvsdeMH5-19" vertex="1">
          <mxGeometry x="20" y="190" width="1200" height="220" as="geometry" />
        </mxCell>
        <mxCell id="UKaXdKn6bv_ach8d9USr-31" value="Valid Token" style="edgeStyle=orthogonalEdgeStyle;rounded=0;orthogonalLoop=1;jettySize=auto;html=1;strokeColor=#457B9D;fontColor=#1D3557;fillColor=#A8DADC;" edge="1" parent="dNxyNK7c78bLwvsdeMH5-21" source="dNxyNK7c78bLwvsdeMH5-28" target="UKaXdKn6bv_ach8d9USr-30">
          <mxGeometry relative="1" as="geometry" />
        </mxCell>
        <mxCell id="dNxyNK7c78bLwvsdeMH5-28" value="check the expiry date for the token" style="rhombus;whiteSpace=wrap;html=1;fontFamily=Helvetica;fontSize=12;fontColor=#1D3557;align=center;rounded=0;labelBackgroundColor=none;fillColor=#A8DADC;strokeColor=#457B9D;" parent="dNxyNK7c78bLwvsdeMH5-21" vertex="1">
          <mxGeometry x="220" y="55" width="120" height="110" as="geometry" />
        </mxCell>
        <mxCell id="UKaXdKn6bv_ach8d9USr-37" value="" style="edgeStyle=orthogonalEdgeStyle;rounded=0;orthogonalLoop=1;jettySize=auto;html=1;strokeColor=#457B9D;fontColor=#1D3557;fillColor=#A8DADC;" edge="1" parent="dNxyNK7c78bLwvsdeMH5-21" source="UKaXdKn6bv_ach8d9USr-30" target="UKaXdKn6bv_ach8d9USr-36">
          <mxGeometry relative="1" as="geometry" />
        </mxCell>
        <mxCell id="UKaXdKn6bv_ach8d9USr-44" value="Valid Signature" style="edgeLabel;html=1;align=center;verticalAlign=middle;resizable=0;points=[];fontColor=#1D3557;" vertex="1" connectable="0" parent="UKaXdKn6bv_ach8d9USr-37">
          <mxGeometry x="-0.2308" y="1" relative="1" as="geometry">
            <mxPoint as="offset" />
          </mxGeometry>
        </mxCell>
        <mxCell id="UKaXdKn6bv_ach8d9USr-30" value="Who generated this token?" style="rhombus;whiteSpace=wrap;html=1;fontFamily=Helvetica;fontSize=12;fontColor=#1D3557;align=center;rounded=0;labelBackgroundColor=none;fillColor=#A8DADC;strokeColor=#457B9D;" vertex="1" parent="dNxyNK7c78bLwvsdeMH5-21">
          <mxGeometry x="450" y="55" width="120" height="110" as="geometry" />
        </mxCell>
        <mxCell id="UKaXdKn6bv_ach8d9USr-36" value="Prepare Request" style="rounded=0;whiteSpace=wrap;html=1;fontFamily=Helvetica;fontSize=12;fontColor=#1D3557;align=center;labelBackgroundColor=none;fillColor=#A8DADC;strokeColor=#457B9D;" vertex="1" parent="dNxyNK7c78bLwvsdeMH5-21">
          <mxGeometry x="687" y="80" width="80" height="60" as="geometry" />
        </mxCell>
        <mxCell id="UKaXdKn6bv_ach8d9USr-43" value="" style="edgeStyle=orthogonalEdgeStyle;rounded=0;orthogonalLoop=1;jettySize=auto;html=1;strokeColor=#457B9D;fontColor=#1D3557;fillColor=#A8DADC;" edge="1" parent="dNxyNK7c78bLwvsdeMH5-21" source="UKaXdKn6bv_ach8d9USr-40" target="UKaXdKn6bv_ach8d9USr-42">
          <mxGeometry relative="1" as="geometry" />
        </mxCell>
        <mxCell id="UKaXdKn6bv_ach8d9USr-40" value="Prepare Response&lt;br&gt;" style="rounded=0;whiteSpace=wrap;html=1;fontFamily=Helvetica;fontSize=12;fontColor=#1D3557;align=center;labelBackgroundColor=none;fillColor=#A8DADC;strokeColor=#457B9D;" vertex="1" parent="dNxyNK7c78bLwvsdeMH5-21">
          <mxGeometry x="840" y="80" width="80" height="60" as="geometry" />
        </mxCell>
        <mxCell id="UKaXdKn6bv_ach8d9USr-42" value="" style="ellipse;whiteSpace=wrap;html=1;rounded=0;labelBackgroundColor=none;fillColor=#008a00;strokeColor=#005700;fontColor=#ffffff;" vertex="1" parent="dNxyNK7c78bLwvsdeMH5-21">
          <mxGeometry x="990" y="90" width="40" height="40" as="geometry" />
        </mxCell>
        <mxCell id="dNxyNK7c78bLwvsdeMH5-22" value="Database" style="swimlane;html=1;startSize=20;horizontal=0;rounded=0;labelBackgroundColor=none;fillColor=#A8DADC;strokeColor=#457B9D;fontColor=#1D3557;" parent="dNxyNK7c78bLwvsdeMH5-19" vertex="1">
          <mxGeometry x="20" y="410" width="1200" height="240" as="geometry" />
        </mxCell>
        <mxCell id="UKaXdKn6bv_ach8d9USr-38" value="Fetch the data" style="rounded=0;whiteSpace=wrap;html=1;fontFamily=Helvetica;fontSize=12;fontColor=#1D3557;align=center;labelBackgroundColor=none;fillColor=#A8DADC;strokeColor=#457B9D;" vertex="1" parent="dNxyNK7c78bLwvsdeMH5-22">
          <mxGeometry x="687" y="80" width="80" height="60" as="geometry" />
        </mxCell>
        <mxCell id="UKaXdKn6bv_ach8d9USr-25" style="edgeStyle=orthogonalEdgeStyle;rounded=0;orthogonalLoop=1;jettySize=auto;html=1;exitX=0.5;exitY=1;exitDx=0;exitDy=0;entryX=0.5;entryY=0;entryDx=0;entryDy=0;strokeColor=#457B9D;fontColor=#1D3557;fillColor=#A8DADC;" edge="1" parent="dNxyNK7c78bLwvsdeMH5-19" source="dNxyNK7c78bLwvsdeMH5-30" target="dNxyNK7c78bLwvsdeMH5-28">
          <mxGeometry relative="1" as="geometry" />
        </mxCell>
        <mxCell id="UKaXdKn6bv_ach8d9USr-27" value="Expired Token" style="edgeStyle=orthogonalEdgeStyle;rounded=0;orthogonalLoop=1;jettySize=auto;html=1;exitX=1;exitY=0;exitDx=0;exitDy=0;entryX=0;entryY=0.75;entryDx=0;entryDy=0;strokeColor=#457B9D;fontColor=#1D3557;fillColor=#A8DADC;" edge="1" parent="dNxyNK7c78bLwvsdeMH5-19" source="dNxyNK7c78bLwvsdeMH5-28" target="UKaXdKn6bv_ach8d9USr-26">
          <mxGeometry x="-0.1969" y="5" relative="1" as="geometry">
            <mxPoint as="offset" />
          </mxGeometry>
        </mxCell>
        <mxCell id="UKaXdKn6bv_ach8d9USr-35" value="Invalid Signature" style="edgeStyle=orthogonalEdgeStyle;rounded=0;orthogonalLoop=1;jettySize=auto;html=1;exitX=1;exitY=0;exitDx=0;exitDy=0;entryX=0;entryY=0.5;entryDx=0;entryDy=0;strokeColor=#457B9D;fontColor=#1D3557;fillColor=#A8DADC;" edge="1" parent="dNxyNK7c78bLwvsdeMH5-19" source="UKaXdKn6bv_ach8d9USr-30" target="UKaXdKn6bv_ach8d9USr-33">
          <mxGeometry x="-0.1105" y="9" relative="1" as="geometry">
            <mxPoint x="1" as="offset" />
          </mxGeometry>
        </mxCell>
        <mxCell id="UKaXdKn6bv_ach8d9USr-39" style="edgeStyle=orthogonalEdgeStyle;rounded=0;orthogonalLoop=1;jettySize=auto;html=1;exitX=0.5;exitY=1;exitDx=0;exitDy=0;entryX=0.5;entryY=0;entryDx=0;entryDy=0;strokeColor=#457B9D;fontColor=#1D3557;fillColor=#A8DADC;" edge="1" parent="dNxyNK7c78bLwvsdeMH5-19" source="UKaXdKn6bv_ach8d9USr-36" target="UKaXdKn6bv_ach8d9USr-38">
          <mxGeometry relative="1" as="geometry" />
        </mxCell>
        <mxCell id="UKaXdKn6bv_ach8d9USr-41" style="edgeStyle=orthogonalEdgeStyle;rounded=0;orthogonalLoop=1;jettySize=auto;html=1;exitX=1;exitY=0.5;exitDx=0;exitDy=0;entryX=0.5;entryY=1;entryDx=0;entryDy=0;strokeColor=#457B9D;fontColor=#1D3557;fillColor=#A8DADC;" edge="1" parent="dNxyNK7c78bLwvsdeMH5-19" source="UKaXdKn6bv_ach8d9USr-38" target="UKaXdKn6bv_ach8d9USr-40">
          <mxGeometry relative="1" as="geometry" />
        </mxCell>
      </root>
    </mxGraphModel>
  </diagram>
</mxfile>
